<svg xmlns="http://www.w3.org/2000/svg" data-name="Layer 1" viewBox="0 0 512 640" x="0px" y="0px"><title>Artboard 48</title><path d="M479.976,213.143a8.732,8.732,0,0,0-9.244.786L358,297.082V242.394A9.684,9.684,0,0,0,348.609,233H36.167A9.487,9.487,0,0,0,27,242.394v204.1c0,4.971,4.2,8.51,9.167,8.51H348.609c4.971,0,9.391-3.539,9.391-8.51V386.185l112.685,83.3a8.709,8.709,0,0,0,5.247,1.758,9.131,9.131,0,0,0,4.089-.966A9.031,9.031,0,0,0,485,462.245V221.175A9.077,9.077,0,0,0,479.976,213.143ZM340,437H45V251H340Zm127,7.418-109-80.6V319.438l109-80.455Z"/><path d="M217.792,144.78a61.987,61.987,0,1,0,61.987-61.987A62.058,62.058,0,0,0,217.792,144.78Zm105.974,0a43.987,43.987,0,1,1-43.987-43.987A44.037,44.037,0,0,1,323.766,144.78Z"/><path d="M33.818,122.791a82.036,82.036,0,1,0,82.036-82.036A82.129,82.129,0,0,0,33.818,122.791Zm146.072,0a64.036,64.036,0,1,1-64.036-64.036A64.109,64.109,0,0,1,179.89,122.791Z"/><text x="0" y="527" fill="#000000" font-size="5px" font-weight="bold" font-family="'Helvetica Neue', Helvetica, Arial-Unicode, Arial, Sans-serif">Created by Bhima</text><text x="0" y="532" fill="#000000" font-size="5px" font-weight="bold" font-family="'Helvetica Neue', Helvetica, Arial-Unicode, Arial, Sans-serif">from the Noun Project</text></svg>