<svg xmlns="http://www.w3.org/2000/svg" data-name="Layer 1" viewBox="0 0 100 125" x="0px" y="0px"><title>website icon</title><path d="M50,66.74a17,17,0,0,1-17-17V22.12a17,17,0,1,1,34,0V49.73A17,17,0,0,1,50,66.74ZM50,11A11.18,11.18,0,0,0,38.83,22.12V49.73a11.17,11.17,0,0,0,22.34,0V22.12A11.18,11.18,0,0,0,50,11Z"/><path d="M76,49.73v-15a3.25,3.25,0,1,0-6.5,0v15a19.5,19.5,0,1,1-39,0v-15a3.25,3.25,0,1,0-6.5,0v15A26,26,0,0,0,46.75,75.51V88.38H33.14a3.25,3.25,0,0,0,0,6.5H66.86a3.25,3.25,0,0,0,0-6.5H53.25V75.51A26,26,0,0,0,76,49.73Z"/><text x="0" y="115" fill="#000000" font-size="5px" font-weight="bold" font-family="'Helvetica Neue', Helvetica, Arial-Unicode, Arial, Sans-serif">Created by fajar hasyim</text><text x="0" y="120" fill="#000000" font-size="5px" font-weight="bold" font-family="'Helvetica Neue', Helvetica, Arial-Unicode, Arial, Sans-serif">from the Noun Project</text></svg>